<svg width="674" height="470" viewBox="0 0 674 470" fill="none" xmlns="http://www.w3.org/2000/svg">
<path d="M233.253 232.055L151.753 232.055L149.753 137.055C151.753 118.655 176.586 107.389 188.753 104.055L298.753 55.5552C331.953 37.5552 364.92 48.0552 377.253 55.5552L489.253 104.555C510.053 110.555 521.253 128.722 524.253 137.055V232.055L441.253 233.055C427.653 229.455 435.586 224.222 441.253 222.055H510.253V137.055C508.653 125.055 495.586 117.722 489.253 115.555L377.253 67.5552C345.253 46.3552 311.586 58.7218 298.753 67.5552L188.753 114.555C170.353 121.355 163.42 132.389 162.253 137.055L164.253 222.555H233.253C252.453 226.155 241.253 230.389 233.253 232.055Z" fill="url(#paint0_linear_22_15)"/>
<path d="M193.253 142.555V209.055H233.253L254.753 207.555C279.153 205.155 306.92 196.555 317.753 192.555C343.353 181.755 380.42 177.722 395.753 177.055L460.753 176.055V174.055L402.253 129.555L387.753 141.555L338.753 104.555L272.253 152.555L261.753 140.555L217.753 181.055L260.253 154.055L264.253 160.555L251.253 178.555L296.253 149.055L283.753 170.055L335.253 129.555V137.555L322.253 154.055L347.753 138.555L359.753 155.555L364.253 141.555L403.753 161.055L395.753 150.555L403.753 143.055L436.253 167.555C393.853 166.755 345.253 174.555 291.753 192.555C284.953 195.755 264.253 199.222 254.753 200.555L202.753 202.055V142.555C202.353 139.755 208.92 135.055 212.253 133.055L315.753 93.0552C332.953 84.6552 352.253 89.5552 359.753 93.0552L461.753 133.055C468.553 137.055 470.92 143.055 471.253 145.555V203.055H416.753C407.153 207.055 412.753 209.722 416.753 210.555H481.753V145.555C480.153 137.155 470.42 129.055 465.753 126.055L359.753 85.0552C343.753 78.2552 323.753 82.2218 315.753 85.0552L212.253 125.055C196.653 131.055 193.086 139.222 193.253 142.555Z" fill="url(#paint1_linear_22_15)"/>
<path fill-rule="evenodd" clip-rule="evenodd" d="M201.253 252.055C216.753 252.055 231.253 240.655 201.253 239.055H119.753L117.253 126.055C118.253 120.722 122.453 108.855 131.253 104.055L298.753 25.0553C311.253 33.8886 344.453 46.2553 377.253 25.0553L536.753 99.0553C542.42 102.555 554.053 112.855 555.253 126.055V239.055L305.253 243.555C295.586 243.722 281.953 242.155 304.753 234.555C306.364 232.3 300.75 227.958 266.42 228.032L417.253 227.055C415.676 225.162 400.153 223.568 379.253 222.586H384.753L392.753 219.055L387.753 214.055L390.753 211.555L385.253 206.555L388.253 204.055L382.753 199.055L378.253 204.055L380.253 206.555L375.753 211.055L378.253 215.055L373.753 219.055L379.253 222.586C375.109 222.392 370.753 222.221 366.253 222.077L369.753 219.055L364.753 214.055L367.753 211.555L362.753 206.555L364.753 204.555L361.253 199.055L357.253 204.055L354.253 200.055L355.753 197.055L351.253 191.055L347.253 197.055L349.253 200.055L343.753 206.055L347.253 210.055L342.253 215.555L350.253 221.689C345.794 221.614 341.276 221.565 336.753 221.544L340.253 218.055L335.253 213.055L338.753 210.055L333.253 205.555L335.253 203.055L330.753 198.555L326.753 203.055L328.253 205.555L323.753 210.055L327.253 213.055L321.753 218.055L327.232 221.542C322.169 221.563 317.15 221.622 312.253 221.721V220.555L315.753 219.555L312.253 217.555L315.253 215.555L312.253 213.555L310.253 209.555L308.253 213.555L305.253 215.555L308.253 217.555L305.253 219.555L308.253 220.555V221.811C281.568 222.48 259.288 224.398 254.753 228.055C254.42 229.055 256.353 231.255 266.753 232.055C276.92 232.222 296.653 232.955 294.253 234.555C277.42 239.889 259.053 250.655 320.253 251.055H572.253V126.055C570.253 116.722 561.953 96.2553 544.753 89.0553L377.253 10.0553C365.086 3.22195 332.353 -6.34471 298.753 10.0553L131.253 87.5552C121.253 92.2219 101.353 106.455 101.753 126.055L103.753 252.055H201.253ZM369.753 21.0552C360.253 27.3885 334.253 36.4552 306.253 22.0552C316.086 16.7218 342.553 9.05518 369.753 21.0552Z" fill="url(#paint2_linear_22_15)"/>
<path d="M308.253 221.811C281.568 222.48 259.288 224.398 254.753 228.055C254.42 229.055 256.353 231.255 266.753 232.055C276.92 232.222 296.653 232.955 294.253 234.555C277.42 239.889 259.053 250.655 320.253 251.055H572.253V126.055C570.253 116.722 561.953 96.2553 544.753 89.0553L377.253 10.0553C365.086 3.22195 332.353 -6.34471 298.753 10.0553L131.253 87.5552C121.253 92.2219 101.353 106.455 101.753 126.055L103.753 252.055H201.253C216.753 252.055 231.253 240.655 201.253 239.055H119.753L117.253 126.055C118.253 120.722 122.453 108.855 131.253 104.055L298.753 25.0553C311.253 33.8886 344.453 46.2553 377.253 25.0553L536.753 99.0553C542.42 102.555 554.053 112.855 555.253 126.055V239.055L305.253 243.555C295.586 243.722 281.953 242.155 304.753 234.555C306.364 232.3 300.75 227.958 266.42 228.032M308.253 221.811V220.555L305.253 219.555L308.253 217.555L305.253 215.555L308.253 213.555L310.253 209.555L312.253 213.555L315.253 215.555L312.253 217.555L315.753 219.555L312.253 220.555V221.721M308.253 221.811C309.576 221.778 310.91 221.748 312.253 221.721M312.253 221.721C317.15 221.622 322.169 221.563 327.232 221.542M327.253 221.555L327.232 221.542M336.753 221.544L340.253 218.055L335.253 213.055L338.753 210.055L333.253 205.555L335.253 203.055L330.753 198.555L326.753 203.055L328.253 205.555L323.753 210.055L327.253 213.055L321.753 218.055L327.232 221.542M336.753 221.544C341.276 221.565 345.794 221.614 350.253 221.689M336.753 221.544C333.575 221.529 330.395 221.528 327.232 221.542M350.253 221.689L342.253 215.555L347.253 210.055L343.753 206.055L349.253 200.055L347.253 197.055L351.253 191.055L355.753 197.055L354.253 200.055L357.253 204.055L361.253 199.055L364.753 204.555L362.753 206.555L367.753 211.555L364.753 214.055L369.753 219.055L366.253 222.077M350.253 221.689C355.71 221.781 361.077 221.911 366.253 222.077M366.253 222.077C370.753 222.221 375.109 222.392 379.253 222.586M379.253 222.586C400.153 223.568 415.676 225.162 417.253 227.055L266.42 228.032M379.253 222.586L373.753 219.055L378.253 215.055L375.753 211.055L380.253 206.555L378.253 204.055L382.753 199.055L388.253 204.055L385.253 206.555L390.753 211.555L387.753 214.055L392.753 219.055L384.753 222.586H379.253ZM266.42 228.032L262.753 228.055C264.01 228.042 265.232 228.034 266.42 228.032ZM369.753 21.0552C360.253 27.3885 334.253 36.4552 306.253 22.0552C316.086 16.7218 342.553 9.05518 369.753 21.0552ZM151.753 232.055L233.253 232.055C241.253 230.389 252.453 226.155 233.253 222.555H164.253L162.253 137.055C163.42 132.389 170.353 121.355 188.753 114.555L298.753 67.5552C311.586 58.7218 345.253 46.3552 377.253 67.5552L489.253 115.555C495.586 117.722 508.653 125.055 510.253 137.055V222.055H441.253C435.586 224.222 427.653 229.455 441.253 233.055L524.253 232.055V137.055C521.253 128.722 510.053 110.555 489.253 104.555L377.253 55.5552C364.92 48.0552 331.953 37.5552 298.753 55.5552L188.753 104.055C176.586 107.389 151.753 118.655 149.753 137.055L151.753 232.055ZM193.253 209.055V142.555C193.086 139.222 196.653 131.055 212.253 125.055L315.753 85.0552C323.753 82.2218 343.753 78.2552 359.753 85.0552L465.753 126.055C470.42 129.055 480.153 137.155 481.753 145.555V210.555H416.753C412.753 209.722 407.153 207.055 416.753 203.055H471.253V145.555C470.92 143.055 468.553 137.055 461.753 133.055L359.753 93.0552C352.253 89.5552 332.953 84.6552 315.753 93.0552L212.253 133.055C208.92 135.055 202.353 139.755 202.753 142.555V202.055L254.753 200.555C264.253 199.222 284.953 195.755 291.753 192.555C345.253 174.555 393.853 166.755 436.253 167.555L403.753 143.055L395.753 150.555L403.753 161.055L364.253 141.555L359.753 155.555L347.753 138.555L322.253 154.055L335.253 137.555V129.555L283.753 170.055L296.253 149.055L251.253 178.555L264.253 160.555L260.253 154.055L217.753 181.055L261.753 140.555L272.253 152.555L338.753 104.555L387.753 141.555L402.253 129.555L460.753 174.055V176.055L395.753 177.055C380.42 177.722 343.353 181.755 317.753 192.555C306.92 196.555 279.153 205.155 254.753 207.555L233.253 209.055H193.253Z" stroke="#BC6231"/>
<path d="M3.17045 297.055V270.873H6.34091V283.862H6.64773L18.4091 270.873H22.5511L11.5568 282.686L22.5511 297.055H18.7159L9.61364 284.885L6.34091 288.567V297.055H3.17045ZM28.3648 270.873H31.9955L39.2569 283.095H39.5637L46.8251 270.873H50.4557L40.9955 286.265V297.055H37.8251V286.265L28.3648 270.873ZM58.5162 297.055V270.873H67.3628C69.4083 270.873 71.0873 271.223 72.3998 271.922C73.7123 272.612 74.6838 273.562 75.3145 274.773C75.9452 275.983 76.2606 277.359 76.2606 278.902C76.2606 280.444 75.9452 281.812 75.3145 283.005C74.6838 284.199 73.7165 285.136 72.4125 285.818C71.1086 286.491 69.4424 286.828 67.414 286.828H60.2549V283.964H67.3117C68.7094 283.964 69.8344 283.76 70.6867 283.351C71.5475 282.942 72.1696 282.362 72.5532 281.612C72.9452 280.853 73.1412 279.95 73.1412 278.902C73.1412 277.853 72.9452 276.937 72.5532 276.153C72.1611 275.369 71.5347 274.764 70.6739 274.338C69.8131 273.903 68.6753 273.686 67.2606 273.686H61.6867V297.055H58.5162ZM70.8401 285.294L77.2833 297.055H73.6015L67.2606 285.294H70.8401ZM103.401 279.055C103.12 278.194 102.749 277.423 102.289 276.741C101.837 276.051 101.296 275.463 100.666 274.977C100.043 274.491 99.336 274.121 98.5433 273.865C97.7507 273.609 96.8814 273.481 95.9354 273.481C94.3843 273.481 92.9737 273.882 91.7039 274.683C90.434 275.484 89.424 276.665 88.674 278.224C87.924 279.784 87.549 281.697 87.549 283.964C87.549 286.231 87.9283 288.145 88.6868 289.704C89.4453 291.264 90.4723 292.444 91.7678 293.246C93.0632 294.047 94.5206 294.447 96.1399 294.447C97.6399 294.447 98.961 294.128 100.103 293.488C101.254 292.841 102.148 291.929 102.788 290.753C103.435 289.568 103.759 288.174 103.759 286.572L104.731 286.777H96.8558V283.964H106.827V286.777C106.827 288.933 106.367 290.808 105.447 292.402C104.535 293.996 103.273 295.231 101.663 296.109C100.06 296.978 98.2195 297.413 96.1399 297.413C93.8218 297.413 91.7848 296.868 90.0291 295.777C88.282 294.686 86.9183 293.135 85.9382 291.123C84.9666 289.112 84.4808 286.726 84.4808 283.964C84.4808 281.893 84.7578 280.031 85.3118 278.378C85.8743 276.716 86.6669 275.301 87.6897 274.133C88.7124 272.966 89.9226 272.071 91.3203 271.449C92.7181 270.826 94.2564 270.515 95.9354 270.515C97.3161 270.515 98.603 270.724 99.7962 271.142C100.998 271.551 102.067 272.135 103.005 272.893C103.951 273.643 104.739 274.542 105.37 275.591C106.001 276.63 106.435 277.785 106.674 279.055H103.401ZM113.159 270.873H116.79L124.051 283.095H124.358L131.619 270.873H135.25L125.79 286.265V297.055H122.619V286.265L113.159 270.873ZM142.441 297.055V294.754L156.555 273.686H142.288V270.873H160.339V273.174L146.225 294.243H160.492V297.055H142.441ZM184.088 277.419C183.935 276.123 183.313 275.118 182.222 274.402C181.131 273.686 179.793 273.328 178.208 273.328C177.049 273.328 176.034 273.515 175.165 273.89C174.304 274.265 173.631 274.781 173.145 275.437C172.668 276.094 172.429 276.839 172.429 277.674C172.429 278.373 172.596 278.974 172.928 279.477C173.269 279.971 173.704 280.385 174.232 280.717C174.76 281.041 175.314 281.309 175.894 281.523C176.473 281.727 177.006 281.893 177.492 282.021L180.151 282.737C180.833 282.916 181.591 283.163 182.427 283.478C183.27 283.794 184.076 284.224 184.843 284.77C185.618 285.307 186.258 285.997 186.76 286.841C187.263 287.684 187.515 288.72 187.515 289.947C187.515 291.362 187.144 292.64 186.402 293.782C185.669 294.924 184.596 295.832 183.181 296.505C181.775 297.179 180.066 297.515 178.054 297.515C176.179 297.515 174.556 297.213 173.184 296.608C171.82 296.003 170.746 295.159 169.962 294.076C169.186 292.994 168.748 291.737 168.645 290.305H171.918C172.003 291.294 172.336 292.112 172.915 292.76C173.503 293.399 174.245 293.876 175.14 294.192C176.043 294.498 177.015 294.652 178.054 294.652C179.265 294.652 180.351 294.456 181.314 294.064C182.277 293.663 183.04 293.109 183.603 292.402C184.165 291.686 184.446 290.851 184.446 289.896C184.446 289.027 184.204 288.319 183.718 287.774C183.232 287.228 182.593 286.785 181.8 286.444C181.008 286.103 180.151 285.805 179.231 285.549L176.009 284.629C173.963 284.041 172.344 283.201 171.151 282.111C169.958 281.02 169.361 279.592 169.361 277.828C169.361 276.362 169.758 275.084 170.55 273.993C171.351 272.893 172.425 272.041 173.772 271.436C175.127 270.822 176.64 270.515 178.31 270.515C179.998 270.515 181.498 270.818 182.81 271.423C184.123 272.02 185.162 272.838 185.929 273.878C186.705 274.917 187.114 276.098 187.157 277.419H184.088ZM195.256 273.686V270.873H214.892V273.686H206.659V297.055H203.488V273.686H195.256ZM221.76 297.055H218.436L228.05 270.873H231.323L240.936 297.055H237.613L229.789 275.015H229.584L221.76 297.055ZM222.988 286.828H236.385V289.64H222.988V286.828ZM269.736 270.873V297.055H266.668L252.401 276.498H252.145V297.055H248.975V270.873H252.043L266.361 291.481H266.617V270.873H269.736ZM306.778 273.686V270.873H326.415V273.686H318.182V297.055H315.011V273.686H306.778ZM335.268 297.055V270.873H344.114C346.16 270.873 347.839 271.223 349.151 271.922C350.464 272.612 351.435 273.562 352.066 274.773C352.697 275.983 353.012 277.359 353.012 278.902C353.012 280.444 352.697 281.812 352.066 283.005C351.435 284.199 350.468 285.136 349.164 285.818C347.86 286.491 346.194 286.828 344.165 286.828H337.006V283.964H344.063C345.461 283.964 346.586 283.76 347.438 283.351C348.299 282.942 348.921 282.362 349.305 281.612C349.697 280.853 349.893 279.95 349.893 278.902C349.893 277.853 349.697 276.937 349.305 276.153C348.913 275.369 348.286 274.764 347.425 274.338C346.565 273.903 345.427 273.686 344.012 273.686H338.438V297.055H335.268ZM347.592 285.294L354.035 297.055H350.353L344.012 285.294H347.592ZM363.329 297.055H360.005L369.619 270.873H372.891L382.505 297.055H379.181L371.357 275.015H371.153L363.329 297.055ZM364.556 286.828H377.954V289.64H364.556V286.828ZM389.156 270.873L396.929 292.913H397.236L405.008 270.873H408.332L398.719 297.055H395.446L385.832 270.873H389.156ZM416.37 297.055V270.873H432.171V273.686H419.541V282.532H431.353V285.345H419.541V294.243H432.376V297.055H416.37ZM441.846 297.055V270.873H445.016V294.243H457.187V297.055H441.846ZM509.385 297.055H506.061L515.675 270.873H518.947L528.561 297.055H525.237L517.413 275.015H517.209L509.385 297.055ZM510.612 286.828H524.01V289.64H510.612V286.828ZM553.266 279.055C552.985 278.194 552.614 277.423 552.154 276.741C551.702 276.051 551.161 275.463 550.531 274.977C549.908 274.491 549.201 274.121 548.408 273.865C547.616 273.609 546.746 273.481 545.8 273.481C544.249 273.481 542.839 273.882 541.569 274.683C540.299 275.484 539.289 276.665 538.539 278.224C537.789 279.784 537.414 281.697 537.414 283.964C537.414 286.231 537.793 288.145 538.552 289.704C539.31 291.264 540.337 292.444 541.633 293.246C542.928 294.047 544.386 294.447 546.005 294.447C547.505 294.447 548.826 294.128 549.968 293.488C551.119 292.841 552.013 291.929 552.653 290.753C553.3 289.568 553.624 288.174 553.624 286.572L554.596 286.777H546.721V283.964H556.692V286.777C556.692 288.933 556.232 290.808 555.312 292.402C554.4 293.996 553.138 295.231 551.528 296.109C549.925 296.978 548.084 297.413 546.005 297.413C543.687 297.413 541.65 296.868 539.894 295.777C538.147 294.686 536.783 293.135 535.803 291.123C534.832 289.112 534.346 286.726 534.346 283.964C534.346 281.893 534.623 280.031 535.177 278.378C535.739 276.716 536.532 275.301 537.555 274.133C538.577 272.966 539.788 272.071 541.185 271.449C542.583 270.826 544.121 270.515 545.8 270.515C547.181 270.515 548.468 270.724 549.661 271.142C550.863 271.551 551.932 272.135 552.87 272.893C553.816 273.643 554.604 274.542 555.235 275.591C555.866 276.63 556.3 277.785 556.539 279.055H553.266ZM566.083 297.055V270.873H581.884V273.686H569.253V282.532H581.065V285.345H569.253V294.243H582.088V297.055H566.083ZM612.319 270.873V297.055H609.251L594.984 276.498H594.729V297.055H591.558V270.873H594.626L608.944 291.481H609.2V270.873H612.319ZM643.692 279.055H640.521C640.334 278.143 640.006 277.342 639.537 276.652C639.077 275.961 638.514 275.382 637.849 274.913C637.193 274.436 636.464 274.078 635.663 273.839C634.862 273.601 634.027 273.481 633.158 273.481C631.572 273.481 630.136 273.882 628.849 274.683C627.571 275.484 626.553 276.665 625.794 278.224C625.044 279.784 624.669 281.697 624.669 283.964C624.669 286.231 625.044 288.145 625.794 289.704C626.553 291.264 627.571 292.444 628.849 293.246C630.136 294.047 631.572 294.447 633.158 294.447C634.027 294.447 634.862 294.328 635.663 294.089C636.464 293.851 637.193 293.497 637.849 293.028C638.514 292.551 639.077 291.967 639.537 291.277C640.006 290.578 640.334 289.777 640.521 288.873H643.692C643.453 290.211 643.018 291.409 642.388 292.466C641.757 293.523 640.973 294.422 640.036 295.163C639.098 295.896 638.045 296.454 636.878 296.838C635.719 297.221 634.479 297.413 633.158 297.413C630.925 297.413 628.939 296.868 627.2 295.777C625.462 294.686 624.094 293.135 623.097 291.123C622.099 289.112 621.601 286.726 621.601 283.964C621.601 281.203 622.099 278.817 623.097 276.805C624.094 274.794 625.462 273.243 627.2 272.152C628.939 271.061 630.925 270.515 633.158 270.515C634.479 270.515 635.719 270.707 636.878 271.091C638.045 271.474 639.098 272.037 640.036 272.778C640.973 273.511 641.757 274.406 642.388 275.463C643.018 276.511 643.453 277.709 643.692 279.055ZM650.525 270.873H654.156L661.417 283.095H661.724L668.985 270.873H672.616L663.156 286.265V297.055H659.985V286.265L650.525 270.873Z" fill="white"/>
<path d="M101.5 323.555L105.5 417.555L124.5 415.055V365.555L157.5 417.555L173.5 413.055V319.055L153 316.555V373.055L118.5 319.055L101.5 323.555Z" fill="white"/>
<path d="M280.5 413.055L291.5 319.055H310.5L337 379.055C341.8 359.055 353.667 330.722 359 319.055H377.5L395.5 415.555L373.5 417.555L364 357.555L343.5 411.555L332.5 413.055L306.5 359.555L300 417.555L280.5 413.055Z" fill="white"/>
<path fill-rule="evenodd" clip-rule="evenodd" d="M272.5 371.555L272 367.055L272.5 362.055L233.5 319.055L223 316.555L187.5 363.555L186 370.055L230 423.055L272.5 371.555ZM207.5 366.055L228 340.555L251 368.555L230 394.555L207.5 366.055Z" fill="white"/>
<path fill-rule="evenodd" clip-rule="evenodd" d="M399.5 415.555L433.5 321.055C436.833 319.055 444.5 315.555 448.5 317.555C462.167 345.055 489.7 401.955 490.5 409.555C488.833 413.555 482.3 420.355 469.5 415.555C469.167 411.889 466.8 401.355 460 388.555L452 399.555C447.167 399.389 437.3 398.255 436.5 395.055H428.5L415.5 415.555H399.5ZM457 381.555L443.5 348.555L431 385.055C439.4 375.855 451.833 378.889 457 381.555Z" fill="white"/>
<path fill-rule="evenodd" clip-rule="evenodd" d="M500 321.055L501 417.055L522 415.555L572.5 360.555C559.167 347.555 530.1 320.455 520.5 316.055L500 321.055ZM518.5 392.055V336.555C522.5 338.555 539.833 354.389 548 362.055L522 390.555L518.5 392.055Z" fill="white"/>
<path d="M101.5 323.555L105.5 417.555L124.5 415.055V365.555L157.5 417.555L173.5 413.055V319.055L153 316.555V373.055L118.5 319.055L101.5 323.555Z" stroke="white"/>
<path d="M280.5 413.055L291.5 319.055H310.5L337 379.055C341.8 359.055 353.667 330.722 359 319.055H377.5L395.5 415.555L373.5 417.555L364 357.555L343.5 411.555L332.5 413.055L306.5 359.555L300 417.555L280.5 413.055Z" stroke="white"/>
<path fill-rule="evenodd" clip-rule="evenodd" d="M272.5 371.555L272 367.055L272.5 362.055L233.5 319.055L223 316.555L187.5 363.555L186 370.055L230 423.055L272.5 371.555ZM207.5 366.055L228 340.555L251 368.555L230 394.555L207.5 366.055Z" stroke="white"/>
<path fill-rule="evenodd" clip-rule="evenodd" d="M399.5 415.555L433.5 321.055C436.833 319.055 444.5 315.555 448.5 317.555C462.167 345.055 489.7 401.955 490.5 409.555C488.833 413.555 482.3 420.355 469.5 415.555C469.167 411.889 466.8 401.355 460 388.555L452 399.555C447.167 399.389 437.3 398.255 436.5 395.055H428.5L415.5 415.555H399.5ZM457 381.555L443.5 348.555L431 385.055C439.4 375.855 451.833 378.889 457 381.555Z" stroke="white"/>
<path fill-rule="evenodd" clip-rule="evenodd" d="M500 321.055L501 417.055L522 415.555L572.5 360.555C559.167 347.555 530.1 320.455 520.5 316.055L500 321.055ZM518.5 392.055V336.555C522.5 338.555 539.833 354.389 548 362.055L522 390.555L518.5 392.055Z" stroke="white"/>
<path d="M253 389.055L255 464.055C272.6 462.055 286.667 455.889 291.5 453.055C291.1 445.855 288 442.389 286.5 441.555L268 446.555V431.055L288 421.555C287.2 413.155 282.333 411.055 280 411.055L267 416.555L266 403.055C272.4 402.255 284.667 395.722 290 392.555C289.2 384.155 284.333 382.055 282 382.055L266 389.055H253Z" fill="#BD4602"/>
<path d="M361 462.055L363 384.555H375.5L376.5 416.555L400.5 382.055L409 389.055L386.5 426.055V431.555L412.5 454.555C410.1 458.555 404.5 462.555 402 464.055L375.5 438.555C375.5 446.155 373.833 457.389 373 462.055H361Z" fill="#BD4602"/>
<path d="M447.5 431.555L427.5 412.555C428.3 408.555 434.5 399.889 437.5 396.055C441.9 389.255 441.667 385.555 441 384.555C440.6 383.355 432.833 382.389 429 382.055C428.6 385.255 416.5 405.055 410.5 414.555L432 434.555C434 436.155 434.167 439.222 434 440.555L424 456.555C426 467.755 433.833 464.889 437.5 462.055L447.5 440.555C448.3 438.555 447.833 433.722 447.5 431.555Z" fill="#BD4602"/>
<path fill-rule="evenodd" clip-rule="evenodd" d="M201.5 462.055V384.555H214L220 389.055C227.167 393.055 242.3 401.955 245.5 405.555L247 412.055L214 444.055V459.555L201.5 462.055ZM215 426.555V402.055C217.4 402.055 226.333 406.722 230.5 409.055V412.055L215 426.555Z" fill="#BD4602"/>
<path fill-rule="evenodd" clip-rule="evenodd" d="M295 462.055L318 384.555L327 382.055C336.167 404.055 354.5 450.255 354.5 459.055C351.5 461.889 344.7 466.455 341.5 462.055L336 440.555C335.359 441.105 334.717 441.991 334.002 442.978C330.814 447.38 326.16 453.806 313.5 441.555L308.5 460.055C306.833 460.722 301.8 462.055 295 462.055ZM332 434.055C332 428.855 326.667 414.555 324 408.055C323.2 408.055 318.333 427.055 316 436.555C322 430.155 329.167 432.222 332 434.055Z" fill="#BD4602"/>
<path d="M253 389.055L255 464.055C272.6 462.055 286.667 455.889 291.5 453.055C291.1 445.855 288 442.389 286.5 441.555L268 446.555V431.055L288 421.555C287.2 413.155 282.333 411.055 280 411.055L267 416.555L266 403.055C272.4 402.255 284.667 395.722 290 392.555C289.2 384.155 284.333 382.055 282 382.055L266 389.055H253Z" stroke="#BC6231"/>
<path d="M361 462.055L363 384.555H375.5L376.5 416.555L400.5 382.055L409 389.055L386.5 426.055V431.555L412.5 454.555C410.1 458.555 404.5 462.555 402 464.055L375.5 438.555C375.5 446.155 373.833 457.389 373 462.055H361Z" stroke="#BC6231"/>
<path d="M447.5 431.555L427.5 412.555C428.3 408.555 434.5 399.889 437.5 396.055C441.9 389.255 441.667 385.555 441 384.555C440.6 383.355 432.833 382.389 429 382.055C428.6 385.255 416.5 405.055 410.5 414.555L432 434.555C434 436.155 434.167 439.222 434 440.555L424 456.555C426 467.755 433.833 464.889 437.5 462.055L447.5 440.555C448.3 438.555 447.833 433.722 447.5 431.555Z" stroke="#BC6231"/>
<path fill-rule="evenodd" clip-rule="evenodd" d="M201.5 462.055V384.555H214L220 389.055C227.167 393.055 242.3 401.955 245.5 405.555L247 412.055L214 444.055V459.555L201.5 462.055ZM215 426.555V402.055C217.4 402.055 226.333 406.722 230.5 409.055V412.055L215 426.555Z" stroke="#BC6231"/>
<path fill-rule="evenodd" clip-rule="evenodd" d="M295 462.055L318 384.555L327 382.055C336.167 404.055 354.5 450.255 354.5 459.055C351.5 461.889 344.7 466.455 341.5 462.055L336 440.555C335.359 441.105 334.717 441.991 334.002 442.978C330.814 447.38 326.16 453.806 313.5 441.555L308.5 460.055C306.833 460.722 301.8 462.055 295 462.055ZM332 434.055C332 428.855 326.667 414.555 324 408.055C323.2 408.055 318.333 427.055 316 436.555C322 430.155 329.167 432.222 332 434.055Z" stroke="#BC6231"/>
<defs>
<linearGradient id="paint0_linear_22_15" x1="337" y1="1" x2="337" y2="252.055" gradientUnits="userSpaceOnUse">
<stop stop-color="#AC4D17"/>
<stop offset="0.690186" stop-color="#F4DED9" stop-opacity="0.8"/>
<stop offset="1" stop-color="#BB5F2C"/>
</linearGradient>
<linearGradient id="paint1_linear_22_15" x1="337" y1="1" x2="337" y2="252.055" gradientUnits="userSpaceOnUse">
<stop stop-color="#AC4D17"/>
<stop offset="0.690186" stop-color="#F4DED9" stop-opacity="0.8"/>
<stop offset="1" stop-color="#BB5F2C"/>
</linearGradient>
<linearGradient id="paint2_linear_22_15" x1="337" y1="1" x2="337" y2="252.055" gradientUnits="userSpaceOnUse">
<stop stop-color="#AC4D17"/>
<stop offset="0.690186" stop-color="#F4DED9" stop-opacity="0.8"/>
<stop offset="1" stop-color="#BB5F2C"/>
</linearGradient>
</defs>
</svg>
